<svg xmlns="http://www.w3.org/2000/svg" width="200" height="60" viewBox="0 0 200 60">
  <defs>
    <linearGradient id="grad1" x1="0%" y1="0%" x2="100%" y2="0%">
      <stop offset="0%" style="stop-color:#4f46e5;stop-opacity:1" />
      <stop offset="100%" style="stop-color:#7c3aed;stop-opacity:1" />
    </linearGradient>
  </defs>
  <g>
    <path d="M30,10 L50,10 C55.5,10 60,14.5 60,20 L60,40 C60,45.5 55.5,50 50,50 L30,50 C24.5,50 20,45.5 20,40 L20,20 C20,14.5 24.5,10 30,10 Z" fill="url(#grad1)" />
    <path d="M35,20 L45,20 L45,25 L40,30 L45,35 L45,40 L35,40 L35,35 L40,30 L35,25 Z" fill="white" />
    <text x="70" y="35" font-family="Arial, sans-serif" font-size="18" font-weight="bold" fill="#1e293b">Kurs Yönetim</text>
  </g>
</svg>
